<?xml version="1.0" standalone="no"?>
<!DOCTYPE svg PUBLIC "-//W3C//DTD SVG 20010904//EN"
 "http://www.w3.org/TR/2001/REC-SVG-20010904/DTD/svg10.dtd">
<svg version="1.0" xmlns="http://www.w3.org/2000/svg"
 width="260.000000pt" height="260.000000pt" viewBox="0 0 260.000000 260.000000"
 preserveAspectRatio="xMidYMid meet">
<metadata>
Created by potrace 1.14, written by Peter Selinger 2001-2017
</metadata>
<g transform="translate(0.000000,260.000000) scale(0.100000,-0.100000)"
fill="#000000" stroke="none">
<path d="M1528 2488 c-26 -9 -50 -57 -64 -125 -9 -46 -24 -55 -65 -42 -19 7
-39 16 -45 21 -27 20 -138 69 -182 79 -114 26 -245 -1 -340 -72 -53 -41 -132
-131 -132 -153 0 -6 23 -23 52 -37 l52 -26 -60 -39 c-226 -150 -362 -406 -365
-690 -1 -77 -5 -86 -52 -103 -24 -9 -31 -7 -60 19 -31 29 -31 31 -13 45 10 8
19 26 19 40 0 14 4 25 8 25 5 0 16 15 25 33 14 30 14 37 0 71 -9 21 -25 40
-36 43 -21 6 -22 7 -22 68 0 54 -21 85 -58 85 -36 0 -53 -27 -46 -73 l5 -32
-28 33 c-60 71 -125 8 -70 -69 16 -23 17 -28 4 -23 -16 7 -55 -21 -55 -39 0
-21 66 -106 95 -123 17 -10 36 -26 43 -36 7 -10 22 -18 32 -18 10 0 27 -15 38
-32 38 -61 96 -80 163 -53 13 5 17 -2 22 -32 30 -193 129 -378 275 -514 76
-71 86 -79 165 -126 l66 -39 -39 -53 c-22 -29 -40 -57 -40 -61 0 -20 -36 4
-50 33 -37 79 -147 49 -164 -45 -5 -32 26 -103 52 -117 11 -6 26 -17 34 -24
19 -18 66 -37 92 -37 25 0 68 41 71 67 1 10 5 26 9 35 4 9 3 25 -3 36 -8 16
-5 28 19 64 16 24 39 53 50 63 19 17 22 17 77 -3 87 -32 198 -52 283 -53 l77
-1 23 -46 c36 -75 40 -95 20 -120 -13 -15 -17 -34 -14 -62 10 -104 68 -124
187 -64 84 43 104 128 45 191 -32 34 -82 31 -119 -8 l-29 -31 -24 55 c-41 94
-42 97 -8 97 48 0 201 48 277 87 155 79 278 188 368 325 28 44 53 75 55 69 2
-6 17 -18 32 -26 36 -19 84 -10 127 21 17 13 45 24 60 24 16 0 33 4 39 8 5 5
27 14 49 20 52 15 125 69 125 92 0 6 -11 22 -24 35 -21 21 -22 25 -7 30 21 6
49 55 44 77 -3 9 -13 20 -24 23 -22 7 -79 -12 -79 -26 0 -5 -5 -9 -10 -9 -6 0
-4 13 5 30 20 38 19 53 -3 73 -41 37 -90 3 -107 -75 -4 -18 -13 -28 -25 -28
-28 0 -77 -46 -83 -77 -3 -16 0 -37 8 -49 9 -14 10 -26 3 -37 -6 -12 -4 -24 6
-39 15 -20 14 -23 -12 -40 -36 -24 -64 -23 -90 5 l-21 22 20 60 c27 81 46 214
43 305 -12 398 -275 717 -691 836 -18 5 9 91 59 192 35 70 40 85 28 92 -17 11
-56 10 -92 -2z m-93 -248 c-3 -5 -13 -10 -21 -10 -8 0 -12 5 -9 10 3 6 13 10
21 10 8 0 12 -4 9 -10z"/>
</g>
</svg>
